<?xml version="1.0" encoding="UTF-8"?>
<svg xmlns="http://www.w3.org/2000/svg" xmlns:xlink="http://www.w3.org/1999/xlink" width="375pt" height="374.999991pt" viewBox="0 0 375 374.999991" version="1.2">
<defs>
<clipPath id="clip1">
  <path d="M 71.484375 21 L 125 21 L 125 85 L 71.484375 85 Z M 71.484375 21 "/>
</clipPath>
<clipPath id="clip2">
  <path d="M 263 136 L 302.953125 136 L 302.953125 204 L 263 204 Z M 263 136 "/>
</clipPath>
</defs>
<g id="surface1">
<path style=" stroke:none;fill-rule:nonzero;fill:rgb(97.648621%,67.83905%,49.798584%);fill-opacity:1;" d="M 250.167969 282.28125 L 250.167969 274.964844 C 250.167969 274.363281 249.679688 273.878906 249.085938 273.878906 L 239.679688 273.878906 C 239.234375 273.878906 238.855469 274.148438 238.691406 274.53125 L 234.378906 280.84375 C 233.898438 281.367188 233.933594 282.191406 234.460938 282.671875 C 234.984375 283.15625 235.804688 283.125 236.285156 282.597656 L 237.75 280.90625 C 238.324219 280.8125 238.53125 281.25 238.597656 281.6875 L 238.597656 290.457031 C 238.597656 291.132812 239.144531 291.679688 239.8125 291.679688 C 240.488281 291.679688 241.03125 291.132812 241.03125 290.457031 L 241.03125 283.03125 L 241.75 283.03125 L 241.75 291.707031 C 241.75 292.382812 242.292969 292.925781 242.96875 292.925781 C 243.640625 292.925781 244.183594 292.382812 244.183594 291.707031 L 244.183594 283.03125 L 244.902344 283.03125 L 244.902344 291.214844 C 244.902344 291.886719 245.445312 292.4375 246.121094 292.4375 C 246.789062 292.4375 247.332031 291.886719 247.332031 291.214844 L 247.332031 283.03125 L 248.050781 283.03125 L 248.050781 286.949219 C 248.050781 287.542969 248.527344 288.023438 249.117188 288.023438 C 249.707031 288.023438 250.183594 287.542969 250.183594 286.949219 L 250.183594 282.457031 L 250.167969 282.28125 "/>
<path style=" stroke:none;fill-rule:nonzero;fill:rgb(13.729858%,12.159729%,12.548828%);fill-opacity:1;" d="M 250.167969 282.28125 L 251.683594 282.28125 L 251.683594 274.964844 C 251.679688 273.523438 250.519531 272.359375 249.085938 272.359375 L 239.679688 272.359375 C 238.613281 272.359375 237.691406 273.007812 237.296875 273.929688 L 238.691406 274.53125 L 237.441406 273.671875 L 233.128906 279.984375 L 234.378906 280.84375 L 233.265625 279.820312 C 232.777344 280.351562 232.527344 281.042969 232.527344 281.722656 C 232.523438 282.476562 232.835938 283.242188 233.4375 283.796875 L 233.433594 283.792969 C 233.96875 284.285156 234.660156 284.535156 235.335938 284.53125 C 236.082031 284.535156 236.847656 284.222656 237.398438 283.625 L 237.425781 283.59375 L 238.894531 281.902344 L 237.75 280.90625 L 238 282.40625 L 237.902344 281.8125 L 237.902344 282.414062 L 238 282.40625 L 237.902344 281.8125 L 237.902344 282.414062 L 237.902344 281.519531 L 237.488281 282.304688 C 237.632812 282.382812 237.800781 282.414062 237.902344 282.414062 L 237.902344 281.519531 L 237.488281 282.304688 L 237.878906 281.5625 L 237.117188 281.945312 C 237.148438 282.011719 237.261719 282.1875 237.488281 282.304688 L 237.878906 281.5625 L 237.117188 281.945312 L 237.40625 281.800781 L 237.097656 281.890625 L 237.117188 281.945312 L 237.40625 281.800781 L 237.097656 281.890625 L 237.101562 281.921875 L 238.597656 281.6875 L 237.085938 281.6875 L 237.085938 290.457031 C 237.085938 291.96875 238.304688 293.195312 239.8125 293.195312 C 241.324219 293.195312 242.546875 291.96875 242.546875 290.457031 L 242.546875 283.03125 L 241.03125 283.03125 L 241.03125 284.550781 L 241.75 284.550781 L 241.75 283.03125 L 240.234375 283.03125 L 240.234375 291.707031 C 240.234375 293.222656 241.460938 294.441406 242.96875 294.445312 C 243.714844 294.445312 244.40625 294.136719 244.898438 293.640625 C 245.390625 293.152344 245.699219 292.457031 245.699219 291.707031 L 245.699219 283.03125 L 244.183594 283.03125 L 244.183594 284.550781 L 244.902344 284.550781 L 244.902344 283.03125 L 243.386719 283.03125 L 243.386719 291.214844 C 243.386719 292.726562 244.605469 293.953125 246.121094 293.953125 C 247.628906 293.949219 248.847656 292.726562 248.847656 291.214844 L 248.847656 283.03125 L 247.332031 283.03125 L 247.332031 284.550781 L 248.050781 284.550781 L 248.050781 283.03125 L 246.539062 283.03125 L 246.539062 286.949219 C 246.539062 288.382812 247.6875 289.535156 249.117188 289.539062 C 250.542969 289.539062 251.695312 288.378906 251.699219 286.949219 L 251.699219 282.457031 L 251.691406 282.320312 L 251.675781 282.148438 L 250.167969 282.28125 L 251.683594 282.28125 L 250.167969 282.28125 L 248.660156 282.421875 L 248.671875 282.53125 L 248.671875 286.949219 L 249.117188 286.949219 L 249.117188 286.503906 C 248.867188 286.503906 248.671875 286.707031 248.671875 286.949219 L 249.117188 286.949219 L 249.117188 286.503906 L 249.117188 286.949219 L 249.566406 286.949219 C 249.5625 286.703125 249.367188 286.503906 249.117188 286.503906 L 249.117188 286.949219 L 249.566406 286.949219 L 249.566406 283.03125 C 249.566406 282.625 249.40625 282.246094 249.121094 281.957031 C 248.835938 281.671875 248.453125 281.515625 248.050781 281.515625 L 247.332031 281.515625 C 246.933594 281.515625 246.546875 281.675781 246.265625 281.957031 C 245.980469 282.242188 245.820312 282.632812 245.820312 283.03125 L 245.820312 291.214844 L 246.121094 291.214844 L 246.121094 290.917969 C 245.949219 290.921875 245.824219 291.050781 245.820312 291.214844 L 246.121094 291.214844 L 246.121094 290.917969 L 246.121094 291.214844 L 246.414062 291.214844 C 246.410156 291.050781 246.28125 290.917969 246.121094 290.917969 L 246.121094 291.214844 L 246.414062 291.214844 L 246.414062 283.03125 C 246.414062 282.625 246.257812 282.246094 245.96875 281.957031 C 245.683594 281.671875 245.304688 281.515625 244.902344 281.515625 L 244.183594 281.515625 C 243.785156 281.515625 243.394531 281.675781 243.113281 281.957031 C 242.832031 282.242188 242.667969 282.632812 242.667969 283.03125 L 242.667969 291.707031 L 242.96875 291.707031 L 242.96875 291.410156 C 242.808594 291.410156 242.667969 291.542969 242.667969 291.707031 L 242.96875 291.707031 L 242.96875 291.410156 L 242.96875 291.707031 L 243.265625 291.707031 C 243.261719 291.539062 243.125 291.410156 242.96875 291.410156 L 242.96875 291.707031 L 243.265625 291.707031 L 243.265625 283.03125 C 243.265625 282.632812 243.101562 282.242188 242.820312 281.957031 C 242.539062 281.675781 242.148438 281.515625 241.75 281.515625 L 241.03125 281.515625 C 240.632812 281.515625 240.242188 281.675781 239.964844 281.957031 C 239.679688 282.242188 239.519531 282.632812 239.519531 283.03125 L 239.519531 290.457031 L 239.8125 290.457031 L 239.8125 290.160156 C 239.648438 290.164062 239.523438 290.289062 239.519531 290.457031 L 239.8125 290.457031 L 239.8125 290.160156 L 239.8125 290.457031 L 240.113281 290.457031 C 240.109375 290.292969 239.984375 290.164062 239.8125 290.160156 L 239.8125 290.457031 L 240.113281 290.457031 L 240.113281 281.6875 L 240.09375 281.453125 C 240.035156 281.117188 239.949219 280.703125 239.621094 280.242188 C 239.457031 280.015625 239.210938 279.785156 238.902344 279.621094 C 238.59375 279.457031 238.234375 279.371094 237.902344 279.375 C 237.761719 279.375 237.632812 279.386719 237.507812 279.410156 C 237.160156 279.46875 236.839844 279.644531 236.613281 279.910156 L 235.140625 281.597656 L 236.285156 282.597656 L 235.167969 281.570312 L 235.335938 281.722656 L 235.335938 281.496094 L 235.167969 281.570312 L 235.335938 281.722656 L 235.335938 281.496094 L 235.335938 281.722656 L 235.484375 281.558594 L 235.335938 281.496094 L 235.335938 281.722656 L 235.484375 281.558594 L 235.480469 281.554688 L 235.332031 281.722656 L 235.554688 281.722656 L 235.480469 281.554688 L 235.332031 281.722656 L 235.554688 281.722656 L 235.339844 281.722656 L 235.5 281.867188 L 235.554688 281.722656 L 235.339844 281.722656 L 235.5 281.867188 L 235.628906 281.699219 L 239.941406 275.386719 L 240.078125 275.132812 L 239.679688 274.960938 L 239.679688 275.394531 C 239.859375 275.390625 240.015625 275.285156 240.078125 275.132812 L 239.679688 274.960938 L 239.679688 275.394531 L 249.085938 275.394531 L 249.085938 274.964844 L 248.65625 274.964844 C 248.65625 275.207031 248.84375 275.390625 249.085938 275.394531 L 249.085938 274.964844 L 248.65625 274.964844 L 248.65625 282.28125 L 248.660156 282.421875 L 250.167969 282.28125 "/>
<path style=" stroke:none;fill-rule:nonzero;fill:rgb(100%,100%,100%);fill-opacity:1;" d="M 227.816406 197.246094 C 227.816406 197.246094 251.152344 205.949219 251.152344 233.21875 C 251.152344 260.492188 251.4375 273.253906 251.4375 273.253906 L 237.296875 273.113281 C 237.296875 273.113281 237.296875 237.71875 237.296875 218.277344 L 227.816406 197.246094 "/>
<path style=" stroke:none;fill-rule:nonzero;fill:rgb(13.729858%,12.159729%,12.548828%);fill-opacity:1;" d="M 227.816406 197.246094 L 227.285156 198.667969 L 227.421875 198.3125 L 227.285156 198.667969 L 227.421875 198.3125 L 227.285156 198.667969 C 227.34375 198.6875 233.003906 200.851562 238.566406 206.230469 C 241.351562 208.921875 244.117188 212.414062 246.183594 216.847656 C 248.253906 221.28125 249.632812 226.671875 249.636719 233.21875 C 249.636719 260.503906 249.925781 273.277344 249.925781 273.289062 L 251.4375 273.253906 L 251.453125 271.734375 L 237.3125 271.59375 L 237.296875 273.113281 L 238.8125 273.113281 C 238.8125 273.113281 238.8125 237.71875 238.8125 218.277344 C 238.8125 218.066406 238.765625 217.847656 238.679688 217.652344 L 229.195312 196.621094 L 227.816406 197.246094 L 227.285156 198.667969 L 227.816406 197.246094 L 226.433594 197.871094 L 235.917969 218.902344 L 237.296875 218.277344 L 235.785156 218.277344 C 235.785156 237.71875 235.785156 273.113281 235.785156 273.113281 C 235.785156 273.945312 236.449219 274.621094 237.28125 274.628906 L 251.421875 274.773438 C 251.832031 274.777344 252.226562 274.613281 252.515625 274.320312 C 252.804688 274.027344 252.960938 273.632812 252.953125 273.222656 C 252.953125 273.21875 252.933594 272.429688 252.910156 270.8125 C 252.828125 265.949219 252.664062 253.664062 252.664062 233.21875 C 252.664062 226.183594 251.15625 220.289062 248.871094 215.449219 C 245.453125 208.175781 240.335938 203.28125 236.082031 200.207031 C 231.832031 197.132812 228.433594 195.859375 228.34375 195.824219 C 227.773438 195.609375 227.128906 195.765625 226.710938 196.210938 C 226.292969 196.65625 226.183594 197.3125 226.433594 197.871094 L 227.816406 197.246094 "/>
<path style=" stroke:none;fill-rule:nonzero;fill:rgb(82.749939%,82.348633%,82.348633%);fill-opacity:1;" d="M 251.761719 268.394531 L 237.007812 268.394531 L 237.007812 274.417969 L 251.761719 274.417969 L 251.761719 268.394531 "/>
<path style=" stroke:none;fill-rule:nonzero;fill:rgb(13.729858%,12.159729%,12.548828%);fill-opacity:1;" d="M 251.761719 268.394531 L 251.761719 266.878906 L 237.007812 266.878906 C 236.609375 266.878906 236.21875 267.039062 235.9375 267.324219 C 235.652344 267.605469 235.492188 267.996094 235.492188 268.394531 L 235.492188 274.417969 C 235.492188 274.816406 235.652344 275.207031 235.9375 275.492188 C 236.21875 275.773438 236.609375 275.933594 237.007812 275.933594 L 251.761719 275.933594 C 252.167969 275.933594 252.546875 275.777344 252.835938 275.492188 C 253.117188 275.203125 253.277344 274.824219 253.277344 274.417969 L 253.277344 268.394531 C 253.277344 267.992188 253.117188 267.609375 252.835938 267.324219 C 252.546875 267.035156 252.167969 266.878906 251.761719 266.878906 L 251.761719 268.394531 L 250.246094 268.394531 L 250.246094 272.898438 L 238.519531 272.898438 L 238.519531 269.914062 L 251.761719 269.914062 L 251.761719 268.394531 L 250.246094 268.394531 L 251.761719 268.394531 "/>
<path style=" stroke:none;fill-rule:nonzero;fill:rgb(29.40979%,8.628845%,8.239746%);fill-opacity:1;" d="M 147.65625 95.578125 C 147.65625 95.578125 146.332031 93.730469 141.671875 93.964844 C 141.671875 93.964844 144.375 90.558594 147.597656 92 C 147.597656 92 144.953125 87.902344 150.875 86.347656 C 150.875 86.347656 148.40625 90.90625 151.28125 91.882812 C 151.28125 91.882812 151.222656 95.519531 147.65625 95.578125 "/>
<path style=" stroke:none;fill-rule:nonzero;fill:rgb(13.729858%,12.159729%,12.548828%);fill-opacity:1;" d="M 147.65625 95.578125 L 148.886719 94.691406 C 148.769531 94.523438 148.289062 93.9375 147.257812 93.410156 C 146.230469 92.878906 144.675781 92.421875 142.460938 92.425781 C 142.183594 92.425781 141.898438 92.429688 141.597656 92.445312 L 141.671875 93.964844 L 142.859375 94.910156 C 142.90625 94.84375 143.328125 94.359375 143.925781 93.933594 C 144.226562 93.714844 144.570312 93.515625 144.917969 93.378906 C 145.269531 93.242188 145.617188 93.160156 145.96875 93.160156 C 146.289062 93.164062 146.609375 93.21875 146.984375 93.386719 C 147.59375 93.660156 148.3125 93.5 148.75 92.988281 C 149.1875 92.472656 149.234375 91.742188 148.867188 91.175781 L 148.167969 91.632812 L 148.875 91.1875 L 148.867188 91.175781 L 148.167969 91.632812 L 148.875 91.1875 L 148.863281 91.164062 C 148.785156 91.039062 148.507812 90.445312 148.523438 89.964844 C 148.53125 89.621094 148.589844 89.359375 148.894531 89.003906 C 149.207031 88.652344 149.882812 88.175781 151.261719 87.816406 L 150.875 86.347656 L 149.546875 85.625 C 149.523438 85.664062 149.25 86.171875 148.964844 86.921875 C 148.6875 87.671875 148.378906 88.652344 148.375 89.757812 C 148.375 90.398438 148.484375 91.109375 148.878906 91.792969 C 149.265625 92.480469 149.96875 93.050781 150.792969 93.324219 L 151.28125 91.882812 L 149.765625 91.859375 L 150.625 91.875 L 149.765625 91.847656 L 149.765625 91.859375 L 150.625 91.875 L 149.765625 91.847656 L 149.757812 91.957031 C 149.734375 92.210938 149.609375 92.847656 149.308594 93.277344 C 149.160156 93.492188 148.988281 93.667969 148.746094 93.800781 C 148.5 93.9375 148.175781 94.050781 147.632812 94.058594 L 147.65625 95.578125 L 148.886719 94.691406 L 147.65625 95.578125 L 147.683594 97.09375 C 148.828125 97.082031 149.832031 96.753906 150.585938 96.230469 C 151.15625 95.835938 151.582031 95.351562 151.882812 94.871094 C 152.347656 94.148438 152.558594 93.433594 152.671875 92.898438 C 152.785156 92.355469 152.792969 91.980469 152.796875 91.910156 C 152.804688 91.25 152.394531 90.664062 151.769531 90.449219 C 151.535156 90.359375 151.542969 90.328125 151.496094 90.269531 C 151.457031 90.207031 151.398438 90.039062 151.402344 89.757812 C 151.394531 89.277344 151.582031 88.546875 151.796875 87.996094 C 151.90625 87.714844 152.011719 87.472656 152.089844 87.308594 L 152.179688 87.121094 L 152.203125 87.078125 L 152.207031 87.070312 L 151.777344 86.839844 L 152.203125 87.074219 L 152.207031 87.070312 L 151.777344 86.839844 L 152.203125 87.074219 C 152.492188 86.542969 152.441406 85.886719 152.070312 85.414062 C 151.695312 84.9375 151.078125 84.726562 150.492188 84.878906 C 148.742188 85.339844 147.480469 86.042969 146.644531 86.976562 C 145.796875 87.90625 145.484375 89.042969 145.496094 89.964844 C 145.496094 90.789062 145.707031 91.476562 145.898438 91.96875 C 146.097656 92.460938 146.289062 92.765625 146.328125 92.824219 L 147.597656 92 L 148.21875 90.617188 C 147.460938 90.277344 146.691406 90.125 145.96875 90.128906 C 145.117188 90.128906 144.339844 90.328125 143.679688 90.609375 C 142.679688 91.027344 141.914062 91.617188 141.375 92.097656 C 140.835938 92.585938 140.527344 92.96875 140.488281 93.019531 C 140.117188 93.480469 140.054688 94.125 140.328125 94.65625 C 140.59375 95.183594 141.15625 95.507812 141.75 95.480469 C 141.996094 95.464844 142.234375 95.460938 142.460938 95.460938 C 144.269531 95.460938 145.3125 95.824219 145.878906 96.113281 C 146.164062 96.257812 146.324219 96.386719 146.40625 96.460938 L 146.472656 96.519531 L 146.964844 96.082031 L 146.429688 96.464844 L 146.472656 96.519531 L 146.964844 96.082031 L 146.429688 96.464844 C 146.71875 96.867188 147.1875 97.101562 147.683594 97.09375 L 147.65625 95.578125 "/>
<path style=" stroke:none;fill-rule:nonzero;fill:rgb(19.60907%,18.429565%,18.818665%);fill-opacity:1;" d="M 237.296875 263.871094 C 237.296875 263.757812 237.285156 263.648438 237.28125 263.535156 L 159.746094 263.535156 C 159.742188 263.648438 159.734375 263.757812 159.734375 263.871094 C 159.734375 271.589844 164.1875 278.566406 171.355469 283.578125 L 173.84375 366.234375 L 185.675781 366.234375 L 188.710938 290.59375 C 191.839844 291.175781 195.125 291.488281 198.511719 291.488281 C 201.84375 291.488281 205.074219 291.1875 208.15625 290.625 L 210.4375 366.234375 L 224.105469 366.234375 L 225.765625 283.515625 C 232.882812 278.507812 237.296875 271.558594 237.296875 263.871094 "/>
<path style=" stroke:none;fill-rule:nonzero;fill:rgb(13.729858%,12.159729%,12.548828%);fill-opacity:1;" d="M 237.296875 263.871094 L 238.8125 263.871094 C 238.808594 263.667969 238.796875 263.53125 238.792969 263.453125 C 238.75 262.648438 238.085938 262.015625 237.28125 262.015625 L 159.746094 262.015625 C 158.929688 262.015625 158.265625 262.664062 158.234375 263.484375 C 158.234375 263.542969 158.222656 263.667969 158.222656 263.871094 C 158.21875 268.023438 159.425781 271.980469 161.5625 275.523438 C 163.699219 279.070312 166.753906 282.210938 170.492188 284.824219 L 171.355469 283.578125 L 169.84375 283.621094 L 172.332031 366.28125 C 172.355469 367.101562 173.027344 367.753906 173.84375 367.753906 L 185.675781 367.753906 C 186.484375 367.753906 187.152344 367.109375 187.1875 366.292969 L 190.222656 290.65625 L 188.710938 290.59375 L 188.433594 292.089844 C 191.65625 292.6875 195.035156 293.007812 198.511719 293.007812 C 201.9375 293.007812 205.257812 292.699219 208.429688 292.117188 L 208.15625 290.625 L 206.644531 290.667969 L 208.921875 366.28125 C 208.949219 367.101562 209.621094 367.753906 210.4375 367.753906 L 224.105469 367.753906 C 224.929688 367.753906 225.601562 367.089844 225.617188 366.265625 L 227.277344 283.546875 L 225.765625 283.515625 L 226.632812 284.761719 C 230.339844 282.152344 233.375 279.011719 235.496094 275.480469 C 237.617188 271.949219 238.8125 268.007812 238.8125 263.871094 L 235.785156 263.871094 C 235.78125 267.417969 234.765625 270.800781 232.902344 273.917969 C 231.03125 277.03125 228.304688 279.875 224.894531 282.273438 C 224.5 282.550781 224.257812 283 224.25 283.488281 L 222.621094 364.71875 L 211.90625 364.71875 L 209.671875 290.578125 C 209.65625 290.136719 209.457031 289.726562 209.113281 289.445312 C 208.765625 289.164062 208.324219 289.054688 207.886719 289.132812 C 204.894531 289.679688 201.753906 289.96875 198.511719 289.96875 C 195.21875 289.96875 192.027344 289.664062 188.984375 289.101562 C 188.550781 289.023438 188.105469 289.136719 187.765625 289.410156 C 187.425781 289.683594 187.214844 290.09375 187.195312 290.535156 L 184.21875 364.71875 L 175.316406 364.71875 L 172.871094 283.53125 C 172.855469 283.050781 172.617188 282.609375 172.222656 282.332031 C 168.785156 279.929688 166.03125 277.082031 164.152344 273.953125 C 162.269531 270.828125 161.25 267.433594 161.25 263.871094 C 161.246094 263.847656 161.253906 263.753906 161.261719 263.589844 L 159.746094 263.535156 L 159.746094 265.050781 L 237.28125 265.050781 L 237.28125 263.535156 L 235.769531 263.613281 C 235.777344 263.765625 235.785156 263.847656 235.785156 263.871094 L 237.296875 263.871094 "/>
<path style=" stroke:none;fill-rule:nonzero;fill:rgb(97.648621%,67.83905%,49.798584%);fill-opacity:1;" d="M 139.984375 152.496094 C 139.984375 155.859375 142.703125 158.589844 146.0625 158.589844 C 149.417969 158.589844 152.136719 155.859375 152.136719 152.496094 C 152.136719 149.132812 149.417969 146.40625 146.0625 146.40625 C 142.703125 146.40625 139.984375 149.132812 139.984375 152.496094 "/>
<path style=" stroke:none;fill-rule:nonzero;fill:rgb(13.729858%,12.159729%,12.548828%);fill-opacity:1;" d="M 139.984375 152.496094 L 138.46875 152.496094 C 138.46875 156.699219 141.863281 160.105469 146.0625 160.109375 C 150.257812 160.105469 153.652344 156.699219 153.652344 152.496094 C 153.652344 148.292969 150.253906 144.886719 146.0625 144.886719 C 141.863281 144.886719 138.46875 148.292969 138.46875 152.496094 L 141.5 152.496094 C 141.5 151.226562 142.007812 150.09375 142.835938 149.261719 C 143.664062 148.433594 144.792969 147.921875 146.0625 147.921875 C 147.328125 147.921875 148.453125 148.433594 149.285156 149.261719 C 150.113281 150.09375 150.621094 151.226562 150.621094 152.496094 C 150.621094 153.765625 150.113281 154.898438 149.285156 155.734375 C 148.453125 156.5625 147.328125 157.070312 146.0625 157.074219 C 144.792969 157.070312 143.664062 156.5625 142.835938 155.734375 C 142.007812 154.898438 141.5 153.765625 141.5 152.496094 L 139.984375 152.496094 "/>
<path style=" stroke:none;fill-rule:nonzero;fill:rgb(97.648621%,67.83905%,49.798584%);fill-opacity:1;" d="M 244.816406 152.496094 C 244.816406 155.859375 247.539062 158.589844 250.894531 158.589844 C 254.257812 158.589844 256.976562 155.859375 256.976562 152.496094 C 256.976562 149.132812 254.257812 146.40625 250.894531 146.40625 C 247.539062 146.40625 244.816406 149.132812 244.816406 152.496094 "/>
<path style=" stroke:none;fill-rule:nonzero;fill:rgb(13.729858%,12.159729%,12.548828%);fill-opacity:1;" d="M 244.816406 152.496094 L 243.304688 152.496094 C 243.304688 156.703125 246.703125 160.105469 250.894531 160.109375 C 255.09375 160.105469 258.488281 156.699219 258.488281 152.496094 C 258.488281 148.292969 255.09375 144.886719 250.894531 144.886719 C 246.703125 144.886719 243.304688 148.292969 243.304688 152.496094 L 246.332031 152.496094 C 246.332031 151.226562 246.839844 150.09375 247.667969 149.261719 C 248.5 148.433594 249.632812 147.921875 250.894531 147.921875 C 252.164062 147.921875 253.296875 148.433594 254.125 149.261719 C 254.953125 150.09375 255.457031 151.226562 255.460938 152.496094 C 255.457031 153.765625 254.953125 154.898438 254.125 155.734375 C 253.296875 156.5625 252.164062 157.070312 250.894531 157.074219 C 249.632812 157.070312 248.5 156.5625 247.667969 155.734375 C 246.839844 154.898438 246.332031 153.765625 246.332031 152.496094 L 244.816406 152.496094 "/>
<path style=" stroke:none;fill-rule:nonzero;fill:rgb(97.648621%,67.83905%,49.798584%);fill-opacity:1;" d="M 146.398438 153.660156 C 146.398438 164.277344 147.328125 193.1875 192.472656 193.1875 L 199.707031 193.1875 C 233.277344 193.1875 250.933594 188.183594 250.933594 153.660156 L 250.933594 111.734375 C 250.933594 101.121094 242.34375 92.515625 231.757812 92.515625 L 165.574219 92.515625 C 154.988281 92.515625 146.398438 101.121094 146.398438 111.734375 L 146.398438 153.660156 "/>
<path style=" stroke:none;fill-rule:nonzero;fill:rgb(13.729858%,12.159729%,12.548828%);fill-opacity:1;" d="M 146.398438 153.660156 L 144.886719 153.660156 C 144.894531 159.023438 145.085938 169.261719 151.257812 178.265625 C 154.339844 182.761719 158.933594 186.910156 165.609375 189.890625 C 172.285156 192.875 181.027344 194.703125 192.472656 194.703125 L 199.707031 194.703125 C 208.136719 194.703125 215.601562 194.394531 222.109375 193.363281 C 226.988281 192.59375 231.332031 191.414062 235.125 189.636719 C 240.816406 186.976562 245.246094 182.890625 248.136719 177 C 251.035156 171.117188 252.445312 163.507812 252.449219 153.660156 L 252.449219 111.734375 C 252.445312 100.285156 243.179688 91 231.757812 91 L 165.574219 91 C 154.148438 91 144.886719 100.28125 144.886719 111.734375 L 144.886719 153.660156 L 147.914062 153.660156 L 147.914062 111.734375 C 147.914062 106.84375 149.890625 102.425781 153.085938 99.21875 C 156.289062 96.011719 160.695312 94.035156 165.574219 94.035156 L 231.757812 94.035156 C 236.640625 94.035156 241.042969 96.011719 244.246094 99.21875 C 247.445312 102.425781 249.414062 106.84375 249.417969 111.734375 L 249.417969 153.660156 C 249.417969 162.160156 248.328125 168.753906 246.25 173.820312 C 244.6875 177.628906 242.589844 180.582031 239.9375 182.9375 C 235.960938 186.457031 230.65625 188.65625 223.925781 189.964844 C 217.207031 191.273438 209.109375 191.671875 199.707031 191.667969 L 192.472656 191.667969 C 181.34375 191.667969 173.039062 189.886719 166.84375 187.117188 C 162.195312 185.039062 158.730469 182.410156 156.105469 179.519531 C 152.171875 175.179688 150.125 170.21875 149.058594 165.570312 C 147.988281 160.921875 147.910156 156.617188 147.914062 153.660156 L 146.398438 153.660156 "/>
<path style=" stroke:none;fill-rule:nonzero;fill:rgb(29.40979%,8.628845%,8.239746%);fill-opacity:1;" d="M 270.359375 80.65625 C 263.855469 84.824219 256.386719 87.285156 251.257812 86.933594 C 254.832031 81.820312 255.816406 76.925781 255.816406 76.925781 C 247.1875 84.710938 234.414062 86.804688 231.554688 87.1875 C 231.386719 87.171875 231.230469 87.15625 231.0625 87.136719 C 239.480469 83.019531 243.339844 76.382812 243.339844 76.382812 C 228.730469 84.664062 206.738281 79.898438 201.882812 78.703125 C 201.550781 78.570312 201.222656 78.445312 200.878906 78.308594 C 162.9375 63.09375 151.121094 91.703125 151.121094 91.703125 L 151.085938 91.960938 C 146.226562 95.445312 146.398438 101.492188 146.398438 107.96875 L 146.398438 153.730469 L 150.5625 153.730469 C 151.484375 148.511719 155.628906 126.839844 162.800781 115.140625 C 177.796875 127.601562 205.042969 129.390625 219.777344 126.351562 C 226.230469 125.019531 231.953125 122.769531 237.023438 119.964844 C 242.621094 132.023438 245.894531 149.167969 246.699219 153.730469 L 250.859375 153.730469 L 250.859375 109.75 C 264.789062 96.460938 270.359375 80.65625 270.359375 80.65625 "/>
<path style=" stroke:none;fill-rule:nonzero;fill:rgb(13.729858%,12.159729%,12.548828%);fill-opacity:1;" d="M 270.359375 80.65625 L 269.542969 79.375 C 266.601562 81.261719 263.4375 82.792969 260.429688 83.839844 C 257.421875 84.886719 254.554688 85.449219 252.257812 85.445312 C 251.949219 85.445312 251.648438 85.4375 251.359375 85.417969 L 251.257812 86.933594 L 252.496094 87.800781 C 256.253906 82.421875 257.269531 77.351562 257.300781 77.226562 C 257.429688 76.582031 257.136719 75.929688 256.566406 75.605469 C 256 75.28125 255.292969 75.359375 254.800781 75.796875 C 250.71875 79.488281 245.546875 81.890625 241.042969 83.394531 C 236.542969 84.894531 232.714844 85.5 231.351562 85.683594 L 231.554688 87.1875 L 231.714844 85.679688 C 231.53125 85.660156 231.367188 85.644531 231.226562 85.632812 L 231.0625 87.136719 L 231.726562 88.5 C 240.558594 84.164062 244.558594 77.28125 244.644531 77.144531 C 244.992188 76.550781 244.898438 75.804688 244.414062 75.316406 C 243.933594 74.824219 243.191406 74.722656 242.59375 75.058594 C 236.492188 78.527344 228.84375 79.640625 221.773438 79.636719 C 212.84375 79.640625 204.882812 77.878906 202.246094 77.226562 L 201.882812 78.703125 L 202.4375 77.285156 C 202.09375 77.152344 201.773438 77.03125 201.441406 76.894531 C 193.324219 73.644531 186.3125 72.332031 180.296875 72.332031 C 174.640625 72.332031 169.871094 73.492188 165.925781 75.25 C 160.007812 77.886719 155.964844 81.835938 153.410156 85.121094 C 150.851562 88.40625 149.757812 91.03125 149.71875 91.121094 C 149.671875 91.242188 149.636719 91.363281 149.621094 91.488281 L 149.585938 91.746094 L 151.085938 91.960938 L 150.199219 90.726562 C 148.90625 91.65625 147.898438 92.769531 147.148438 94 C 146.015625 95.847656 145.464844 97.917969 145.179688 100.054688 C 144.902344 102.203125 144.882812 104.433594 144.882812 106.6875 C 144.882812 107.117188 144.886719 107.546875 144.886719 107.96875 L 144.886719 153.730469 C 144.886719 154.128906 145.046875 154.519531 145.328125 154.804688 C 145.609375 155.085938 146 155.246094 146.398438 155.246094 L 150.5625 155.246094 C 151.296875 155.246094 151.925781 154.722656 152.054688 153.996094 C 152.507812 151.417969 153.769531 144.730469 155.800781 137.265625 C 157.824219 129.804688 160.640625 121.546875 164.089844 115.933594 L 162.800781 115.140625 L 161.832031 116.308594 C 167.539062 121.042969 174.835938 124.238281 182.515625 126.269531 C 190.191406 128.296875 198.269531 129.160156 205.570312 129.160156 C 210.984375 129.160156 215.96875 128.683594 220.082031 127.839844 C 226.695312 126.476562 232.5625 124.164062 237.75 121.296875 L 237.023438 119.964844 L 235.648438 120.609375 C 238.382812 126.492188 240.585938 133.726562 242.191406 140.035156 C 243.796875 146.347656 244.808594 151.742188 245.207031 153.996094 C 245.339844 154.722656 245.964844 155.246094 246.699219 155.246094 L 250.859375 155.246094 C 251.257812 155.246094 251.648438 155.085938 251.929688 154.804688 C 252.210938 154.519531 252.375 154.128906 252.375 153.730469 L 252.375 109.75 L 250.859375 109.75 L 251.902344 110.851562 C 266.109375 97.28125 271.734375 81.28125 271.785156 81.160156 C 272.003906 80.550781 271.804688 79.863281 271.300781 79.464844 C 270.796875 79.0625 270.085938 79.027344 269.542969 79.375 L 270.359375 80.65625 L 268.929688 80.148438 L 268.917969 80.179688 C 268.632812 81.003906 263.035156 96.050781 249.816406 108.652344 C 249.515625 108.941406 249.34375 109.335938 249.34375 109.75 L 249.34375 152.210938 L 246.699219 152.210938 L 246.699219 153.730469 L 248.191406 153.464844 C 247.785156 151.160156 246.757812 145.703125 245.125 139.285156 C 243.492188 132.867188 241.261719 125.5 238.394531 119.324219 C 238.21875 118.941406 237.894531 118.65625 237.496094 118.523438 C 237.09375 118.390625 236.664062 118.433594 236.292969 118.636719 C 231.339844 121.367188 225.769531 123.570312 219.476562 124.867188 C 215.613281 125.660156 210.804688 126.128906 205.570312 126.125 C 198.503906 126.128906 190.667969 125.28125 183.285156 123.332031 C 175.90625 121.382812 169 118.324219 163.765625 113.96875 C 163.425781 113.691406 162.984375 113.570312 162.550781 113.640625 C 162.121094 113.710938 161.738281 113.96875 161.511719 114.34375 C 157.789062 120.4375 154.953125 128.863281 152.878906 136.46875 C 150.8125 144.066406 149.539062 150.824219 149.074219 153.464844 L 150.5625 153.730469 L 150.5625 152.210938 L 147.914062 152.210938 L 147.914062 107.96875 C 147.914062 107.539062 147.910156 107.105469 147.910156 106.6875 C 147.90625 103.707031 147.960938 100.941406 148.511719 98.65625 C 148.785156 97.507812 149.175781 96.488281 149.726562 95.589844 C 150.285156 94.6875 150.992188 93.898438 151.96875 93.191406 C 152.300781 92.953125 152.523438 92.589844 152.582031 92.171875 L 152.617188 91.921875 L 151.121094 91.703125 L 152.519531 92.285156 C 152.578125 92.132812 154.429688 87.84375 158.796875 83.664062 C 160.976562 81.570312 163.785156 79.5 167.324219 77.949219 C 170.863281 76.402344 175.132812 75.367188 180.296875 75.367188 C 185.875 75.367188 192.496094 76.578125 200.320312 79.714844 L 200.316406 79.714844 C 200.671875 79.855469 201 79.984375 201.332031 80.113281 L 201.523438 80.175781 C 204.304688 80.859375 212.453125 82.667969 221.773438 82.671875 C 229.148438 82.667969 237.277344 81.550781 244.085938 77.703125 L 243.339844 76.382812 L 242.03125 75.613281 L 242.457031 75.863281 L 242.03125 75.613281 L 242.457031 75.863281 L 242.03125 75.613281 C 242.003906 75.679688 238.277344 81.929688 230.398438 85.773438 C 229.789062 86.074219 229.457031 86.734375 229.574219 87.402344 C 229.6875 88.070312 230.226562 88.578125 230.902344 88.648438 C 231.085938 88.667969 231.246094 88.683594 231.386719 88.699219 C 231.511719 88.710938 231.628906 88.710938 231.75 88.695312 C 233.25 88.492188 237.242188 87.859375 242 86.273438 C 246.753906 84.683594 252.285156 82.148438 256.828125 78.054688 L 255.816406 76.925781 L 254.332031 76.625 L 254.921875 76.746094 L 254.332031 76.621094 L 254.332031 76.625 L 254.921875 76.746094 L 254.332031 76.621094 C 254.328125 76.652344 253.359375 81.292969 250.015625 86.058594 C 249.703125 86.507812 249.652344 87.09375 249.890625 87.585938 C 250.125 88.078125 250.609375 88.410156 251.15625 88.445312 C 251.511719 88.46875 251.878906 88.480469 252.257812 88.480469 C 255.027344 88.480469 258.167969 87.835938 261.421875 86.710938 C 264.671875 85.574219 268.027344 83.953125 271.175781 81.929688 L 270.359375 80.65625 L 268.929688 80.148438 L 270.359375 80.65625 "/>
<path style=" stroke:none;fill-rule:nonzero;fill:rgb(15.289307%,13.729858%,14.118958%);fill-opacity:1;" d="M 153.285156 369.214844 C 153.621094 360.675781 161.542969 353.84375 171.292969 353.84375 C 181.039062 353.84375 188.964844 360.675781 189.300781 369.214844 L 153.285156 369.214844 "/>
<path style=" stroke:none;fill-rule:nonzero;fill:rgb(13.729858%,12.159729%,12.548828%);fill-opacity:1;" d="M 153.285156 369.214844 L 154.792969 369.273438 C 154.949219 365.46875 156.78125 362.023438 159.738281 359.480469 C 162.699219 356.945312 166.769531 355.355469 171.292969 355.359375 C 175.8125 355.355469 179.886719 356.945312 182.84375 359.480469 C 185.804688 362.023438 187.636719 365.46875 187.789062 369.273438 L 189.300781 369.214844 L 189.300781 367.699219 L 153.285156 367.699219 L 153.285156 369.214844 L 154.792969 369.273438 L 153.285156 369.214844 L 153.285156 370.734375 L 189.300781 370.734375 C 189.710938 370.734375 190.105469 370.5625 190.390625 370.265625 C 190.679688 369.96875 190.828125 369.5625 190.8125 369.152344 C 190.628906 364.425781 188.332031 360.183594 184.808594 357.175781 C 181.285156 354.15625 176.523438 352.324219 171.292969 352.324219 C 166.0625 352.324219 161.296875 354.15625 157.777344 357.175781 C 154.25 360.183594 151.957031 364.425781 151.769531 369.152344 C 151.753906 369.5625 151.910156 369.96875 152.191406 370.265625 C 152.476562 370.5625 152.875 370.734375 153.285156 370.734375 L 153.285156 369.214844 "/>
<path style=" stroke:none;fill-rule:nonzero;fill:rgb(22.349548%,20.779419%,21.179199%);fill-opacity:1;" d="M 153.296875 373.164062 L 189.289062 373.164062 L 189.289062 369.226562 L 153.296875 369.226562 L 153.296875 373.164062 "/>
<path style=" stroke:none;fill-rule:nonzero;fill:rgb(13.729858%,12.159729%,12.548828%);fill-opacity:1;" d="M 153.296875 373.164062 L 153.296875 374.683594 L 189.289062 374.683594 C 189.695312 374.683594 190.074219 374.519531 190.363281 374.234375 C 190.644531 373.945312 190.804688 373.566406 190.804688 373.164062 L 190.804688 369.226562 C 190.804688 368.824219 190.644531 368.445312 190.363281 368.15625 C 190.074219 367.867188 189.695312 367.710938 189.289062 367.710938 L 153.296875 367.710938 C 152.898438 367.710938 152.507812 367.871094 152.222656 368.15625 C 151.945312 368.4375 151.78125 368.828125 151.78125 369.226562 L 151.78125 373.164062 C 151.78125 373.558594 151.945312 373.949219 152.222656 374.234375 C 152.507812 374.519531 152.898438 374.683594 153.296875 374.683594 L 153.296875 373.164062 L 154.808594 373.164062 L 154.808594 370.746094 L 187.777344 370.746094 L 187.777344 371.640625 L 153.296875 371.640625 L 153.296875 373.164062 L 154.808594 373.164062 L 153.296875 373.164062 "/>
<path style=" stroke:none;fill-rule:nonzero;fill:rgb(15.289307%,13.729858%,14.118958%);fill-opacity:1;" d="M 206.890625 369.214844 C 207.230469 360.675781 215.15625 353.84375 224.90625 353.84375 C 234.652344 353.84375 242.578125 360.675781 242.917969 369.214844 L 206.890625 369.214844 "/>
<path style=" stroke:none;fill-rule:nonzero;fill:rgb(13.729858%,12.159729%,12.548828%);fill-opacity:1;" d="M 206.890625 369.214844 L 208.40625 369.273438 C 208.554688 365.46875 210.394531 362.023438 213.355469 359.480469 C 216.3125 356.945312 220.386719 355.355469 224.90625 355.359375 C 229.421875 355.355469 233.496094 356.945312 236.453125 359.480469 C 239.414062 362.023438 241.25 365.46875 241.402344 369.273438 L 242.917969 369.214844 L 242.917969 367.699219 L 206.890625 367.699219 L 206.890625 369.214844 L 208.40625 369.273438 L 206.890625 369.214844 L 206.890625 370.734375 L 242.917969 370.734375 C 243.328125 370.734375 243.722656 370.5625 244.007812 370.265625 C 244.292969 369.96875 244.445312 369.5625 244.425781 369.152344 C 244.242188 364.425781 241.949219 360.183594 238.421875 357.175781 C 234.898438 354.15625 230.132812 352.324219 224.90625 352.324219 C 219.675781 352.324219 214.914062 354.15625 211.386719 357.175781 C 207.863281 360.183594 205.566406 364.425781 205.378906 369.152344 C 205.363281 369.5625 205.515625 369.96875 205.800781 370.265625 C 206.082031 370.5625 206.480469 370.734375 206.890625 370.734375 L 206.890625 369.214844 "/>
<path style=" stroke:none;fill-rule:nonzero;fill:rgb(22.349548%,20.779419%,21.179199%);fill-opacity:1;" d="M 206.902344 373.164062 L 242.90625 373.164062 L 242.90625 369.226562 L 206.902344 369.226562 L 206.902344 373.164062 "/>
<path style=" stroke:none;fill-rule:nonzero;fill:rgb(13.729858%,12.159729%,12.548828%);fill-opacity:1;" d="M 206.902344 373.164062 L 206.902344 374.683594 L 242.90625 374.683594 C 243.308594 374.683594 243.691406 374.519531 243.972656 374.234375 C 244.261719 373.945312 244.417969 373.566406 244.417969 373.164062 L 244.417969 369.226562 C 244.417969 368.824219 244.261719 368.445312 243.972656 368.15625 C 243.691406 367.867188 243.308594 367.710938 242.90625 367.710938 L 206.902344 367.710938 C 206.507812 367.710938 206.117188 367.871094 205.835938 368.15625 C 205.550781 368.4375 205.390625 368.828125 205.390625 369.226562 L 205.390625 373.164062 C 205.390625 373.558594 205.550781 373.949219 205.835938 374.234375 C 206.117188 374.519531 206.507812 374.683594 206.902344 374.683594 L 206.902344 373.164062 L 208.417969 373.164062 L 208.417969 370.746094 L 241.390625 370.746094 L 241.390625 371.640625 L 206.902344 371.640625 L 206.902344 373.164062 L 208.417969 373.164062 L 206.902344 373.164062 "/>
<path style=" stroke:none;fill-rule:nonzero;fill:rgb(90.979004%,62.348938%,45.489502%);fill-opacity:1;" d="M 164.761719 74.308594 C 164.894531 75.554688 166.199219 76.445312 167.671875 76.285156 L 177.191406 75.214844 C 178.667969 75.058594 179.753906 73.917969 179.625 72.671875 C 179.492188 71.421875 178.191406 70.53125 176.71875 70.691406 L 167.195312 71.761719 C 165.722656 71.917969 164.632812 73.058594 164.761719 74.308594 "/>
<path style=" stroke:none;fill-rule:nonzero;fill:rgb(13.729858%,12.159729%,12.548828%);fill-opacity:1;" d="M 164.761719 74.308594 L 163.257812 74.464844 C 163.363281 75.496094 163.929688 76.378906 164.671875 76.941406 C 165.417969 77.515625 166.347656 77.824219 167.339844 77.824219 C 167.5 77.824219 167.664062 77.816406 167.828125 77.796875 L 167.84375 77.796875 L 177.363281 76.722656 L 177.355469 76.726562 C 178.375 76.613281 179.292969 76.183594 179.988281 75.515625 C 180.679688 74.855469 181.152344 73.917969 181.152344 72.867188 C 181.152344 72.75 181.144531 72.632812 181.132812 72.523438 L 181.132812 72.503906 C 181.019531 71.476562 180.457031 70.597656 179.710938 70.035156 C 178.964844 69.460938 178.035156 69.152344 177.054688 69.152344 C 176.886719 69.152344 176.722656 69.160156 176.554688 69.179688 L 176.550781 69.179688 L 167.027344 70.253906 L 167.039062 70.25 C 166.015625 70.363281 165.09375 70.789062 164.40625 71.453125 C 163.714844 72.113281 163.238281 73.054688 163.238281 74.101562 C 163.238281 74.210938 163.242188 74.347656 163.261719 74.5 L 164.761719 74.308594 L 163.257812 74.464844 L 164.761719 74.308594 L 166.265625 74.113281 L 166.152344 74.128906 L 166.265625 74.121094 L 166.265625 74.113281 L 166.152344 74.128906 L 166.265625 74.121094 L 166.265625 74.101562 C 166.265625 73.984375 166.316406 73.824219 166.5 73.648438 C 166.679688 73.46875 166.984375 73.3125 167.355469 73.269531 L 167.367188 73.269531 L 176.886719 72.195312 L 176.878906 72.195312 L 177.054688 72.1875 C 177.398438 72.1875 177.691406 72.300781 177.871094 72.441406 C 178.050781 72.585938 178.101562 72.710938 178.117188 72.832031 L 179.625 72.671875 L 178.117188 72.8125 L 178.121094 72.867188 C 178.121094 72.992188 178.070312 73.148438 177.886719 73.332031 C 177.703125 73.507812 177.40625 73.667969 177.035156 73.707031 L 177.023438 73.707031 L 167.503906 74.78125 L 167.515625 74.78125 L 167.339844 74.789062 C 166.992188 74.789062 166.695312 74.675781 166.519531 74.535156 C 166.335938 74.390625 166.285156 74.269531 166.269531 74.148438 L 166.265625 74.113281 L 164.761719 74.308594 "/>
<path style=" stroke:none;fill-rule:nonzero;fill:rgb(90.979004%,62.348938%,45.489502%);fill-opacity:1;" d="M 154.933594 78.65625 C 155.390625 79.820312 156.710938 80.394531 157.878906 79.933594 L 168.023438 76.167969 C 169.191406 75.710938 169.761719 74.386719 169.304688 73.214844 C 168.84375 72.046875 167.527344 71.472656 166.359375 71.933594 L 156.214844 75.703125 C 155.046875 76.160156 154.476562 77.484375 154.933594 78.65625 "/>
<path style=" stroke:none;fill-rule:nonzero;fill:rgb(13.729858%,12.159729%,12.548828%);fill-opacity:1;" d="M 154.933594 78.65625 L 153.523438 79.207031 C 154.113281 80.703125 155.535156 81.617188 157.046875 81.613281 C 157.507812 81.613281 157.980469 81.527344 158.425781 81.351562 L 157.878906 79.933594 L 158.40625 81.363281 L 168.546875 77.589844 L 168.578125 77.578125 C 170.070312 76.992188 170.976562 75.558594 170.976562 74.046875 C 170.976562 73.582031 170.890625 73.117188 170.722656 72.675781 L 170.714844 72.660156 C 170.121094 71.171875 168.703125 70.253906 167.191406 70.253906 C 166.730469 70.253906 166.257812 70.34375 165.804688 70.523438 L 166.359375 71.933594 L 165.835938 70.507812 L 155.691406 74.277344 L 155.664062 74.285156 C 154.171875 74.878906 153.257812 76.308594 153.261719 77.820312 C 153.261719 78.277344 153.34375 78.757812 153.527344 79.214844 L 153.523438 79.207031 L 154.933594 78.65625 L 156.339844 78.089844 C 156.304688 78 156.289062 77.910156 156.289062 77.820312 C 156.289062 77.519531 156.46875 77.226562 156.769531 77.113281 L 156.214844 75.703125 L 156.738281 77.125 L 166.882812 73.359375 L 166.921875 73.347656 C 167.011719 73.3125 167.101562 73.289062 167.191406 73.289062 C 167.492188 73.292969 167.78125 73.472656 167.898438 73.777344 L 169.304688 73.214844 L 167.894531 73.761719 C 167.929688 73.859375 167.949219 73.957031 167.949219 74.046875 C 167.945312 74.355469 167.765625 74.644531 167.46875 74.757812 L 168.023438 76.167969 L 167.496094 74.746094 L 157.355469 78.511719 L 157.332031 78.519531 C 157.230469 78.558594 157.140625 78.574219 157.046875 78.574219 C 156.742188 78.574219 156.453125 78.394531 156.34375 78.097656 L 156.339844 78.089844 L 154.933594 78.65625 "/>
<path style=" stroke:none;fill-rule:nonzero;fill:rgb(97.648621%,67.059326%,49.01886%);fill-opacity:1;" d="M 131.777344 95.308594 L 143.195312 86.15625 L 154.90625 77.019531 C 155.683594 76.394531 166.679688 73.503906 166.679688 73.503906 C 166.996094 73.378906 167.328125 73.335938 167.648438 73.351562 C 167.8125 73.289062 167.976562 73.246094 168.15625 73.226562 L 176.183594 72.128906 C 177.429688 71.96875 178.5625 72.855469 178.722656 74.101562 C 178.878906 75.347656 178 76.484375 176.753906 76.644531 L 168.730469 77.742188 C 168.585938 77.757812 168.445312 77.761719 168.308594 77.753906 L 161.082031 80.433594 L 158.453125 82.714844 L 158.492188 82.703125 C 158.492188 82.703125 156.148438 84.570312 157.046875 86.222656 C 157.769531 87.554688 159.445312 87.230469 159.902344 87.117188 L 159.941406 87.097656 C 161.023438 86.660156 162.339844 86.164062 163.472656 85.558594 L 167.871094 82.628906 C 169.144531 81.792969 170.851562 82.15625 171.683594 83.433594 C 172.511719 84.714844 172.152344 86.425781 170.878906 87.261719 L 163.847656 91.953125 C 163.363281 92.265625 162.828125 92.410156 162.285156 92.398438 L 159.507812 93.261719 C 159.507812 93.261719 148.207031 98.058594 147.523438 97.742188 L 142.453125 106.59375 L 131.777344 95.308594 "/>
<path style=" stroke:none;fill-rule:nonzero;fill:rgb(13.729858%,12.159729%,12.548828%);fill-opacity:1;" d="M 131.777344 95.308594 L 132.722656 96.492188 L 144.121094 87.355469 L 155.835938 78.214844 L 155.851562 78.203125 L 155.332031 77.554688 L 155.730469 78.285156 L 155.851562 78.203125 L 155.332031 77.554688 L 155.730469 78.285156 L 155.78125 78.261719 C 155.917969 78.199219 156.25 78.074219 156.664062 77.933594 C 158.136719 77.4375 160.761719 76.6875 162.988281 76.074219 C 164.101562 75.765625 165.121094 75.492188 165.863281 75.292969 C 166.605469 75.09375 167.0625 74.976562 167.0625 74.976562 L 167.238281 74.914062 C 167.316406 74.882812 167.410156 74.867188 167.519531 74.867188 L 167.566406 74.867188 C 167.769531 74.878906 167.976562 74.847656 168.171875 74.777344 L 168.359375 74.730469 L 176.382812 73.632812 L 176.375 73.632812 L 176.472656 73.628906 C 176.839844 73.625 177.171875 73.90625 177.21875 74.289062 L 177.21875 74.28125 L 177.222656 74.390625 C 177.222656 74.761719 176.945312 75.09375 176.566406 75.136719 L 176.550781 75.140625 L 168.523438 76.234375 L 168.730469 77.742188 L 168.542969 76.234375 L 168.441406 76.238281 L 168.386719 76.238281 C 168.1875 76.226562 167.96875 76.261719 167.785156 76.332031 L 160.554688 79.011719 C 160.386719 79.074219 160.222656 79.167969 160.085938 79.289062 L 157.464844 81.566406 C 156.9375 82.027344 156.789062 82.792969 157.113281 83.414062 C 157.433594 84.035156 158.140625 84.355469 158.820312 84.183594 L 158.859375 84.175781 L 158.492188 82.703125 L 157.554688 81.511719 C 157.5 81.554688 157.023438 81.933594 156.5 82.570312 C 156.238281 82.890625 155.960938 83.277344 155.738281 83.742188 C 155.511719 84.203125 155.328125 84.765625 155.328125 85.417969 C 155.324219 85.910156 155.445312 86.460938 155.722656 86.957031 L 155.71875 86.949219 C 156.09375 87.660156 156.707031 88.167969 157.304688 88.425781 C 157.910156 88.691406 158.480469 88.753906 158.953125 88.753906 C 159.550781 88.753906 160.015625 88.652344 160.269531 88.589844 L 160.519531 88.5 L 160.558594 88.484375 L 159.941406 87.097656 L 160.507812 88.503906 C 161.566406 88.074219 162.925781 87.570312 164.183594 86.898438 L 164.308594 86.824219 L 168.707031 83.890625 L 168.699219 83.894531 C 168.910156 83.757812 169.136719 83.699219 169.367188 83.695312 C 169.777344 83.699219 170.171875 83.890625 170.414062 84.265625 C 170.550781 84.476562 170.613281 84.707031 170.613281 84.945312 C 170.609375 85.355469 170.417969 85.75 170.046875 85.992188 L 170.039062 86 L 163.007812 90.6875 L 163.847656 91.953125 L 163.027344 90.675781 C 162.804688 90.820312 162.582031 90.875 162.34375 90.878906 L 162.300781 90.878906 C 162.148438 90.875 161.992188 90.902344 161.839844 90.949219 L 159.0625 91.808594 L 158.914062 91.859375 C 158.914062 91.859375 158.261719 92.136719 157.25 92.5625 C 155.742188 93.1875 153.4375 94.132812 151.40625 94.917969 C 150.394531 95.308594 149.449219 95.65625 148.71875 95.902344 C 148.355469 96.023438 148.042969 96.121094 147.828125 96.175781 C 147.714844 96.210938 147.628906 96.230469 147.582031 96.238281 L 147.546875 96.242188 L 147.621094 96.859375 L 147.621094 96.242188 L 147.546875 96.242188 L 147.621094 96.859375 L 147.621094 96.242188 L 147.621094 97.539062 L 148.175781 96.371094 C 147.820312 96.21875 147.695312 96.25 147.621094 96.242188 L 147.621094 97.539062 L 148.175781 96.371094 C 147.457031 96.03125 146.605469 96.300781 146.210938 96.984375 L 142.148438 104.070312 L 132.875 94.265625 L 131.777344 95.308594 L 132.722656 96.492188 L 131.777344 95.308594 L 130.679688 96.351562 L 141.351562 107.636719 C 141.683594 107.988281 142.152344 108.160156 142.628906 108.097656 C 143.105469 108.042969 143.523438 107.765625 143.765625 107.347656 L 148.835938 98.496094 L 147.523438 97.742188 L 146.875 99.113281 C 147.269531 99.285156 147.460938 99.265625 147.621094 99.277344 C 147.914062 99.273438 148.085938 99.234375 148.296875 99.1875 C 148.671875 99.105469 149.085938 98.980469 149.582031 98.8125 C 151.296875 98.246094 153.898438 97.214844 156.109375 96.316406 C 158.308594 95.417969 160.09375 94.660156 160.097656 94.65625 L 159.507812 93.261719 L 159.953125 94.707031 L 162.738281 93.847656 L 162.285156 92.398438 L 162.269531 93.917969 L 162.34375 93.917969 C 163.140625 93.921875 163.957031 93.6875 164.671875 93.226562 L 164.6875 93.210938 L 171.714844 88.523438 L 171.707031 88.53125 C 172.957031 87.710938 173.644531 86.339844 173.644531 84.945312 C 173.644531 84.144531 173.417969 83.328125 172.953125 82.609375 C 172.132812 81.351562 170.761719 80.660156 169.367188 80.660156 C 168.574219 80.660156 167.757812 80.886719 167.039062 81.359375 L 167.03125 81.367188 L 162.632812 84.296875 L 163.472656 85.558594 L 162.761719 84.21875 C 161.75 84.761719 160.480469 85.242188 159.371094 85.691406 L 159.316406 85.714844 L 159.277344 85.734375 L 159.902344 87.117188 L 159.53125 85.644531 C 159.433594 85.671875 159.183594 85.71875 158.953125 85.71875 C 158.769531 85.71875 158.609375 85.6875 158.53125 85.652344 C 158.453125 85.609375 158.445312 85.613281 158.378906 85.5 L 158.375 85.492188 L 158.355469 85.417969 C 158.351562 85.371094 158.375 85.242188 158.460938 85.066406 C 158.585938 84.804688 158.839844 84.472656 159.066406 84.242188 C 159.175781 84.125 159.277344 84.03125 159.347656 83.96875 L 159.425781 83.898438 L 159.441406 83.886719 L 159.152344 83.535156 L 159.4375 83.890625 L 159.441406 83.886719 L 159.152344 83.535156 L 159.4375 83.890625 C 159.992188 83.449219 160.167969 82.675781 159.855469 82.035156 C 159.539062 81.390625 158.816406 81.058594 158.125 81.230469 L 158.085938 81.238281 L 158.453125 82.714844 L 159.449219 83.859375 L 161.859375 81.761719 L 168.832031 79.179688 L 168.308594 77.753906 L 168.230469 79.269531 L 168.441406 79.273438 C 168.597656 79.273438 168.753906 79.265625 168.910156 79.246094 L 168.933594 79.242188 L 176.960938 78.148438 L 176.949219 78.148438 C 178.855469 77.902344 180.253906 76.277344 180.253906 74.390625 C 180.253906 74.234375 180.246094 74.078125 180.222656 73.914062 L 180.222656 73.90625 C 179.980469 71.996094 178.359375 70.59375 176.472656 70.59375 C 176.3125 70.59375 176.152344 70.601562 175.988281 70.621094 L 175.976562 70.625 L 167.949219 71.722656 L 167.964844 71.722656 C 167.65625 71.757812 167.375 71.835938 167.132812 71.925781 L 167.648438 73.351562 L 167.730469 71.835938 L 167.519531 71.832031 C 167.066406 71.828125 166.585938 71.90625 166.121094 72.097656 L 166.679688 73.503906 L 166.292969 72.039062 C 166.289062 72.039062 163.535156 72.761719 160.675781 73.566406 C 159.242188 73.96875 157.789062 74.394531 156.621094 74.757812 C 156.03125 74.941406 155.523438 75.113281 155.109375 75.265625 C 154.902344 75.34375 154.714844 75.417969 154.546875 75.492188 L 154.28125 75.621094 C 154.191406 75.675781 154.097656 75.726562 153.957031 75.835938 L 154.90625 77.019531 L 153.972656 75.820312 L 142.261719 84.960938 L 142.246094 84.972656 L 130.832031 94.121094 C 130.5 94.386719 130.296875 94.78125 130.269531 95.203125 C 130.238281 95.625 130.386719 96.046875 130.679688 96.351562 L 131.777344 95.308594 "/>
<path style=" stroke:none;fill-rule:nonzero;fill:rgb(100%,100%,100%);fill-opacity:1;" d="M 213.855469 192.023438 L 184.046875 192.023438 C 184.046875 192.023438 174.660156 191.695312 167.550781 198.46875 C 159.171875 194.578125 135.925781 182.003906 126.597656 158.730469 C 120.285156 142.972656 127.800781 124.980469 146.402344 107 L 134.324219 87.285156 C 134.324219 87.285156 88.992188 123.335938 106.785156 171.222656 C 117.367188 199.679688 147.5625 210.144531 160.285156 213.367188 C 159.933594 215.507812 159.734375 217.855469 159.734375 220.457031 L 159.765625 263.566406 L 237.296875 263.59375 L 237.296875 211.679688 C 232.984375 191.359375 213.855469 192.023438 213.855469 192.023438 "/>
<path style=" stroke:none;fill-rule:nonzero;fill:rgb(13.729858%,12.159729%,12.548828%);fill-opacity:1;" d="M 213.855469 192.023438 L 213.855469 190.507812 L 184.046875 190.507812 L 184.046875 192.023438 L 184.101562 190.507812 C 184.085938 190.507812 183.988281 190.503906 183.832031 190.503906 C 183.015625 190.507812 180.441406 190.578125 177.183594 191.46875 C 173.929688 192.351562 169.980469 194.0625 166.511719 197.367188 L 167.550781 198.46875 L 168.191406 197.09375 C 164.078125 195.183594 156.273438 191.121094 148.386719 184.691406 C 140.492188 178.261719 132.535156 169.480469 128.003906 158.164062 C 126.597656 154.660156 125.914062 151.058594 125.914062 147.347656 C 125.914062 141.265625 127.757812 134.875 131.378906 128.28125 C 135.003906 121.683594 140.410156 114.902344 147.457031 108.089844 C 147.96875 107.597656 148.066406 106.8125 147.691406 106.207031 L 135.613281 86.488281 C 135.386719 86.117188 135.015625 85.863281 134.585938 85.789062 C 134.160156 85.710938 133.722656 85.824219 133.382812 86.09375 C 133.316406 86.148438 125.304688 92.519531 117.261719 103.511719 C 109.234375 114.496094 101.140625 130.136719 101.132812 148.714844 C 101.132812 156 102.386719 163.726562 105.367188 171.75 C 110.804688 186.375 121.277344 196.351562 131.929688 203.042969 C 142.582031 209.742188 153.449219 213.199219 159.914062 214.835938 L 160.285156 213.367188 L 158.789062 213.121094 C 158.425781 215.347656 158.222656 217.78125 158.222656 220.457031 L 158.253906 263.566406 C 158.253906 264.402344 158.929688 265.078125 159.765625 265.082031 L 237.292969 265.109375 C 237.699219 265.109375 238.082031 264.953125 238.367188 264.664062 C 238.65625 264.378906 238.8125 263.996094 238.8125 263.59375 L 238.8125 211.679688 C 238.8125 211.570312 238.800781 211.472656 238.777344 211.367188 C 237.722656 206.386719 235.792969 202.535156 233.429688 199.609375 C 229.890625 195.214844 225.445312 192.933594 221.71875 191.761719 C 217.988281 190.59375 214.953125 190.507812 214.066406 190.503906 C 213.90625 190.503906 213.816406 190.507812 213.800781 190.507812 L 213.855469 192.023438 L 213.855469 190.507812 L 213.855469 192.023438 L 213.910156 193.542969 L 213.90625 193.472656 L 213.910156 193.542969 L 213.90625 193.472656 L 213.910156 193.542969 L 214.066406 193.539062 C 214.96875 193.535156 219.554688 193.683594 224.269531 196.054688 C 226.628906 197.242188 229.027344 198.96875 231.074219 201.519531 C 233.125 204.066406 234.84375 207.441406 235.816406 211.996094 L 237.296875 211.679688 L 235.785156 211.679688 L 235.785156 262.074219 L 161.28125 262.046875 L 161.25 220.453125 C 161.25 217.933594 161.441406 215.667969 161.777344 213.605469 C 161.90625 212.832031 161.414062 212.085938 160.65625 211.890625 C 154.390625 210.308594 143.800781 206.925781 133.535156 200.472656 C 123.261719 194.011719 113.347656 184.523438 108.207031 170.6875 C 105.347656 163 104.160156 155.652344 104.160156 148.714844 C 104.15625 131.046875 111.902344 115.976562 119.707031 105.304688 C 123.609375 99.972656 127.511719 95.75 130.4375 92.867188 C 131.898438 91.425781 133.113281 90.320312 133.957031 89.582031 C 134.382812 89.207031 134.710938 88.929688 134.9375 88.742188 C 135.046875 88.648438 135.132812 88.582031 135.1875 88.53125 L 135.25 88.484375 L 135.265625 88.46875 L 134.324219 87.285156 L 133.03125 88.078125 L 145.113281 107.792969 L 146.402344 107 L 145.355469 105.90625 C 138.144531 112.878906 132.542969 119.875 128.730469 126.816406 C 124.917969 133.753906 122.886719 140.640625 122.886719 147.347656 C 122.886719 151.433594 123.644531 155.4375 125.191406 159.296875 C 129.988281 171.257812 138.320312 180.398438 146.472656 187.046875 C 154.636719 193.695312 162.644531 197.863281 166.917969 199.847656 C 167.480469 200.109375 168.140625 199.996094 168.597656 199.570312 C 171.601562 196.699219 175.070312 195.1875 177.976562 194.394531 C 180.882812 193.601562 183.207031 193.539062 183.832031 193.539062 L 183.960938 193.542969 L 213.910156 193.542969 L 213.855469 192.023438 "/>
<path style=" stroke:none;fill-rule:nonzero;fill:rgb(82.749939%,82.348633%,82.348633%);fill-opacity:1;" d="M 149.417969 106.171875 L 136.433594 85.335938 L 131.339844 88.523438 L 144.324219 109.359375 L 149.417969 106.171875 "/>
<path style=" stroke:none;fill-rule:nonzero;fill:rgb(13.729858%,12.159729%,12.548828%);fill-opacity:1;" d="M 149.417969 106.171875 L 150.703125 105.363281 L 137.714844 84.527344 C 137.503906 84.183594 137.167969 83.949219 136.773438 83.855469 C 136.378906 83.761719 135.972656 83.832031 135.628906 84.046875 L 130.539062 87.234375 C 129.832031 87.683594 129.613281 88.617188 130.058594 89.328125 L 143.039062 110.164062 C 143.257812 110.507812 143.59375 110.746094 143.988281 110.839844 C 144.378906 110.929688 144.785156 110.863281 145.128906 110.644531 L 150.21875 107.453125 C 150.929688 107.011719 151.144531 106.074219 150.703125 105.363281 L 149.417969 106.171875 L 148.617188 104.882812 L 144.804688 107.269531 L 133.425781 89.007812 L 135.953125 87.425781 L 148.128906 106.972656 L 149.417969 106.171875 L 148.617188 104.882812 L 149.417969 106.171875 "/>
<path style=" stroke:none;fill-rule:nonzero;fill:rgb(74.119568%,73.728943%,73.728943%);fill-opacity:1;" d="M 170.289062 57.8125 C 170.289062 52.898438 173.710938 49.375 178.515625 49.375 C 183.507812 49.375 186.746094 52.898438 186.835938 57.8125 C 186.835938 62.632812 183.507812 66.242188 178.515625 66.242188 C 173.621094 66.242188 170.289062 62.632812 170.289062 57.8125 Z M 172.691406 45.023438 L 172.601562 42.613281 C 172.324219 37.886719 173.894531 33.066406 178.054688 28.058594 C 181.011719 24.542969 183.417969 21.574219 183.417969 18.421875 C 183.417969 15.179688 181.289062 13.046875 176.667969 12.859375 C 173.621094 12.859375 169.917969 13.976562 167.515625 15.644531 L 164.371094 5.539062 C 167.699219 3.59375 173.246094 1.742188 179.808594 1.742188 C 192.015625 1.742188 197.5625 8.507812 197.5625 16.195312 C 197.5625 23.242188 193.21875 27.878906 189.703125 31.769531 C 186.28125 35.570312 184.898438 39.183594 184.988281 43.355469 L 184.988281 45.023438 L 172.691406 45.023438 "/>
<path style=" stroke:none;fill-rule:nonzero;fill:rgb(13.729858%,12.159729%,12.548828%);fill-opacity:1;" d="M 170.289062 57.8125 L 171.800781 57.8125 C 171.804688 55.707031 172.523438 54.007812 173.683594 52.816406 C 174.851562 51.621094 176.480469 50.902344 178.515625 50.894531 C 180.664062 50.902344 182.273438 51.625 183.425781 52.8125 C 184.574219 53.996094 185.28125 55.707031 185.324219 57.839844 L 186.835938 57.8125 L 185.324219 57.8125 C 185.320312 59.875 184.625 61.578125 183.460938 62.78125 C 182.296875 63.976562 180.648438 64.722656 178.515625 64.726562 C 176.4375 64.722656 174.8125 63.980469 173.65625 62.785156 C 172.503906 61.578125 171.804688 59.875 171.800781 57.8125 L 168.773438 57.8125 C 168.769531 60.570312 169.734375 63.082031 171.472656 64.886719 C 173.207031 66.703125 175.699219 67.769531 178.515625 67.761719 C 181.375 67.769531 183.890625 66.707031 185.636719 64.890625 C 187.390625 63.085938 188.355469 60.570312 188.351562 57.8125 L 188.351562 57.785156 C 188.304688 55.003906 187.347656 52.5 185.601562 50.695312 C 183.867188 48.890625 181.367188 47.851562 178.515625 47.859375 C 175.746094 47.855469 173.261719 48.894531 171.519531 50.691406 C 169.765625 52.488281 168.769531 55.003906 168.773438 57.8125 Z M 172.691406 45.023438 L 174.203125 44.964844 L 174.113281 42.554688 L 174.113281 42.523438 C 174.09375 42.203125 174.082031 41.878906 174.085938 41.5625 C 174.085938 39.554688 174.453125 37.539062 175.277344 35.460938 C 176.097656 33.386719 177.378906 31.246094 179.21875 29.03125 L 179.210938 29.039062 C 180.695312 27.273438 182.078125 25.609375 183.132812 23.902344 C 184.183594 22.199219 184.929688 20.398438 184.933594 18.421875 C 184.933594 17.445312 184.769531 16.5 184.414062 15.632812 C 183.878906 14.324219 182.878906 13.222656 181.558594 12.511719 C 180.234375 11.796875 178.628906 11.421875 176.726562 11.347656 L 176.667969 11.34375 C 174.960938 11.347656 173.144531 11.652344 171.410156 12.171875 C 169.675781 12.703125 168.023438 13.445312 166.65625 14.394531 L 167.515625 15.644531 L 168.960938 15.191406 L 165.820312 5.089844 L 164.371094 5.539062 L 165.136719 6.851562 C 168.203125 5.050781 173.535156 3.25 179.808594 3.257812 C 185.640625 3.261719 189.671875 4.863281 192.246094 7.207031 C 194.816406 9.558594 196.039062 12.714844 196.046875 16.195312 C 196.042969 19.402344 195.078125 22.019531 193.65625 24.378906 C 192.234375 26.734375 190.347656 28.796875 188.582031 30.75 C 186.832031 32.6875 185.546875 34.632812 184.703125 36.660156 C 183.855469 38.683594 183.464844 40.78125 183.46875 42.964844 C 183.46875 43.097656 183.46875 43.25 183.476562 43.410156 L 184.988281 43.355469 L 183.472656 43.355469 L 183.472656 43.507812 L 172.691406 43.507812 L 172.691406 45.023438 L 174.203125 44.964844 L 172.691406 45.023438 L 172.691406 46.542969 L 184.988281 46.542969 C 185.394531 46.542969 185.773438 46.382812 186.058594 46.09375 C 186.34375 45.8125 186.503906 45.425781 186.503906 45.023438 L 186.503906 43.296875 C 186.5 43.203125 186.5 43.089844 186.5 42.964844 C 186.5 41.140625 186.808594 39.480469 187.496094 37.832031 C 188.1875 36.183594 189.257812 34.53125 190.828125 32.785156 C 192.574219 30.851562 194.617188 28.644531 196.246094 25.953125 C 197.875 23.261719 199.082031 20.039062 199.078125 16.195312 C 199.085938 11.996094 197.535156 7.917969 194.28125 4.964844 C 191.03125 2.003906 186.183594 0.21875 179.808594 0.222656 C 172.957031 0.230469 167.199219 2.136719 163.613281 4.226562 C 163 4.585938 162.714844 5.320312 162.929688 5.992188 L 166.074219 16.09375 C 166.214844 16.554688 166.570312 16.921875 167.023438 17.078125 C 167.480469 17.238281 167.984375 17.164062 168.378906 16.890625 C 169.410156 16.171875 170.808594 15.523438 172.285156 15.082031 C 173.765625 14.632812 175.328125 14.378906 176.667969 14.378906 L 176.667969 12.859375 L 176.609375 14.378906 C 178.707031 14.460938 180.035156 14.988281 180.785156 15.644531 C 181.167969 15.976562 181.425781 16.34375 181.613281 16.789062 C 181.796875 17.242188 181.902344 17.777344 181.902344 18.421875 C 181.902344 19.601562 181.449219 20.855469 180.554688 22.304688 C 179.667969 23.746094 178.371094 25.332031 176.894531 27.082031 L 176.890625 27.089844 C 174.878906 29.511719 173.417969 31.925781 172.460938 34.34375 C 171.503906 36.757812 171.050781 39.179688 171.050781 41.5625 C 171.054688 41.945312 171.066406 42.324219 171.089844 42.703125 L 172.601562 42.613281 L 171.089844 42.667969 L 171.179688 45.078125 C 171.210938 45.894531 171.878906 46.542969 172.691406 46.542969 L 172.691406 45.023438 "/>
<path style=" stroke:none;fill-rule:nonzero;fill:rgb(74.119568%,73.728943%,73.728943%);fill-opacity:1;" d="M 107.714844 79.011719 C 104.917969 74.976562 105.722656 70.125 109.671875 67.378906 C 113.773438 64.523438 118.433594 65.566406 121.304688 69.546875 C 124.050781 73.503906 123.371094 78.378906 119.269531 81.230469 C 115.246094 84.035156 110.453125 82.96875 107.714844 79.011719 Z M 102.410156 67.128906 L 100.960938 65.199219 C 98.042969 61.480469 96.59375 56.621094 97.164062 50.132812 C 97.589844 45.550781 97.878906 41.738281 96.085938 39.152344 C 94.238281 36.484375 91.28125 35.949219 87.378906 38.441406 C 84.875 40.1875 82.46875 43.214844 81.441406 45.957031 L 73.113281 39.453125 C 74.738281 35.953125 78.238281 31.261719 83.632812 27.503906 C 93.660156 20.527344 102.0625 22.917969 106.4375 29.234375 C 110.449219 35.019531 109.511719 41.3125 108.839844 46.519531 C 108.195312 51.59375 109.113281 55.355469 111.5625 58.730469 L 112.511719 60.097656 L 102.410156 67.128906 "/>
<g clip-path="url(#clip1)" clip-rule="nonzero">
<path style=" stroke:none;fill-rule:nonzero;fill:rgb(13.729858%,12.159729%,12.548828%);fill-opacity:1;" d="M 107.714844 79.011719 L 108.953125 78.144531 C 108.003906 76.765625 107.570312 75.339844 107.570312 73.988281 C 107.578125 71.945312 108.527344 70.035156 110.535156 68.625 C 111.894531 67.683594 113.238281 67.277344 114.515625 67.273438 C 115.539062 67.277344 116.535156 67.539062 117.480469 68.0625 C 118.421875 68.585938 119.308594 69.375 120.078125 70.4375 L 121.304688 69.546875 L 120.0625 70.414062 C 121 71.769531 121.4375 73.199219 121.4375 74.558594 C 121.4375 75.574219 121.195312 76.558594 120.703125 77.480469 C 120.203125 78.398438 119.457031 79.253906 118.40625 79.988281 C 117.105469 80.886719 115.777344 81.285156 114.5 81.289062 C 112.425781 81.285156 110.417969 80.238281 108.957031 78.144531 L 107.714844 79.011719 L 106.472656 79.875 C 108.402344 82.6875 111.363281 84.328125 114.5 84.324219 C 116.414062 84.324219 118.371094 83.707031 120.132812 82.476562 C 121.542969 81.5 122.628906 80.285156 123.363281 78.921875 C 124.097656 77.566406 124.46875 76.070312 124.46875 74.558594 C 124.46875 72.535156 123.808594 70.496094 122.550781 68.683594 L 122.53125 68.65625 C 120.539062 65.882812 117.625 64.234375 114.515625 64.238281 C 112.578125 64.238281 110.605469 64.875 108.808594 66.132812 C 106.0625 68.03125 104.53125 70.945312 104.542969 73.988281 C 104.539062 76 105.195312 78.039062 106.472656 79.875 Z M 102.410156 67.128906 L 103.621094 66.21875 L 102.171875 64.289062 L 102.152344 64.261719 C 99.875 61.34375 98.566406 57.726562 98.558594 52.839844 C 98.558594 52.015625 98.59375 51.160156 98.675781 50.265625 L 98.675781 50.269531 C 98.84375 48.417969 99 46.660156 99 45 C 99 43.765625 98.910156 42.585938 98.664062 41.460938 C 98.414062 40.328125 97.996094 39.25 97.332031 38.285156 C 96.707031 37.386719 95.941406 36.636719 95.027344 36.113281 C 94.117188 35.589844 93.0625 35.3125 91.96875 35.316406 C 90.242188 35.320312 88.441406 35.960938 86.5625 37.164062 L 86.515625 37.195312 C 85.109375 38.171875 83.796875 39.457031 82.667969 40.882812 C 81.542969 42.304688 80.609375 43.863281 80.023438 45.421875 L 81.441406 45.957031 L 82.375 44.757812 L 74.042969 38.257812 L 73.113281 39.453125 L 74.484375 40.09375 C 75.976562 36.867188 79.335938 32.335938 84.496094 28.75 C 88.566406 25.925781 92.230469 24.785156 95.351562 24.785156 C 97.460938 24.785156 99.335938 25.300781 100.984375 26.21875 C 102.632812 27.132812 104.058594 28.453125 105.195312 30.101562 C 107.328125 33.1875 107.917969 36.378906 107.925781 39.617188 C 107.925781 41.894531 107.617188 44.164062 107.339844 46.324219 C 107.195312 47.433594 107.125 48.492188 107.125 49.511719 C 107.113281 53.410156 108.21875 56.726562 110.335938 59.621094 L 111.5625 58.730469 L 110.316406 59.597656 L 110.402344 59.71875 L 101.546875 65.882812 L 102.410156 67.128906 L 103.621094 66.21875 L 102.410156 67.128906 L 103.273438 68.378906 L 113.375 61.34375 C 113.707031 61.117188 113.925781 60.769531 114.003906 60.371094 C 114.074219 59.96875 113.984375 59.566406 113.753906 59.230469 L 112.804688 57.863281 L 112.785156 57.835938 C 111.019531 55.382812 110.164062 52.863281 110.152344 49.511719 C 110.152344 48.636719 110.21875 47.703125 110.34375 46.707031 C 110.613281 44.570312 110.953125 42.164062 110.953125 39.617188 C 110.960938 36.011719 110.257812 32.070312 107.683594 28.367188 C 106.304688 26.378906 104.542969 24.71875 102.457031 23.5625 C 100.371094 22.398438 97.960938 21.75 95.351562 21.75 C 91.488281 21.75 87.21875 23.160156 82.769531 26.261719 C 77.140625 30.1875 73.496094 35.042969 71.738281 38.816406 C 71.445312 39.453125 71.625 40.21875 72.179688 40.652344 L 80.511719 47.15625 C 80.890625 47.453125 81.390625 47.550781 81.851562 47.414062 C 82.320312 47.285156 82.6875 46.941406 82.859375 46.492188 C 83.300781 45.308594 84.082031 43.976562 85.039062 42.765625 C 85.996094 41.554688 87.136719 40.453125 88.242188 39.6875 L 87.378906 38.441406 L 88.191406 39.71875 C 89.746094 38.726562 91.019531 38.347656 91.96875 38.351562 C 92.574219 38.355469 93.0625 38.492188 93.527344 38.75 C 93.988281 39.011719 94.429688 39.421875 94.84375 40.015625 C 95.246094 40.597656 95.523438 41.28125 95.707031 42.109375 C 95.890625 42.941406 95.96875 43.914062 95.96875 45 C 95.96875 46.472656 95.828125 48.15625 95.660156 49.992188 L 95.660156 49.996094 C 95.570312 50.976562 95.527344 51.921875 95.527344 52.839844 C 95.519531 58.273438 97.054688 62.683594 99.769531 66.140625 L 100.960938 65.199219 L 99.75 66.113281 L 101.199219 68.042969 C 101.6875 68.695312 102.601562 68.839844 103.273438 68.378906 L 102.410156 67.128906 "/>
</g>
<path style=" stroke:none;fill-rule:nonzero;fill:rgb(74.119568%,73.728943%,73.728943%);fill-opacity:1;" d="M 265.007812 191.851562 C 266.125 187.066406 270.253906 184.417969 274.9375 185.519531 C 279.796875 186.65625 282.148438 190.828125 281.117188 195.628906 C 280.027344 200.320312 275.960938 203.082031 271.101562 201.941406 C 266.332031 200.820312 263.910156 196.542969 265.007812 191.851562 Z M 270.253906 179.945312 L 270.714844 177.578125 C 271.515625 172.914062 274.144531 168.582031 279.332031 164.65625 C 283.011719 161.902344 286.027344 159.5625 286.746094 156.496094 C 287.484375 153.339844 285.894531 150.777344 281.4375 149.539062 C 278.46875 148.84375 274.613281 149.082031 271.894531 150.15625 L 271.132812 139.601562 C 274.8125 138.46875 280.636719 137.929688 287.027344 139.429688 C 298.910156 142.21875 302.769531 150.070312 301.023438 157.5625 C 299.421875 164.421875 294.140625 167.941406 289.832031 170.929688 C 285.636719 173.84375 283.464844 177.046875 282.609375 181.128906 L 282.226562 182.753906 L 270.253906 179.945312 "/>
<g clip-path="url(#clip2)" clip-rule="nonzero">
<path style=" stroke:none;fill-rule:nonzero;fill:rgb(13.729858%,12.159729%,12.548828%);fill-opacity:1;" d="M 265.007812 191.851562 L 266.480469 192.195312 C 266.886719 190.460938 267.734375 189.121094 268.832031 188.210938 C 269.9375 187.296875 271.296875 186.789062 272.855469 186.789062 C 273.410156 186.789062 273.988281 186.855469 274.59375 186.996094 C 276.355469 187.410156 277.628906 188.25 278.5 189.34375 C 279.363281 190.441406 279.839844 191.832031 279.839844 193.449219 C 279.839844 194.039062 279.777344 194.664062 279.640625 195.3125 L 281.117188 195.628906 L 279.644531 195.285156 C 279.246094 196.984375 278.417969 198.320312 277.320312 199.242188 C 276.222656 200.160156 274.855469 200.675781 273.257812 200.679688 C 272.683594 200.679688 272.078125 200.609375 271.445312 200.464844 C 269.746094 200.058594 268.480469 199.222656 267.609375 198.121094 C 266.742188 197.015625 266.261719 195.632812 266.261719 194.058594 C 266.261719 193.464844 266.332031 192.839844 266.480469 192.199219 L 266.480469 192.195312 L 265.007812 191.851562 L 263.53125 191.503906 C 263.332031 192.363281 263.234375 193.222656 263.234375 194.058594 C 263.230469 196.261719 263.921875 198.34375 265.230469 200.003906 C 266.539062 201.664062 268.449219 202.878906 270.757812 203.421875 C 271.605469 203.617188 272.441406 203.714844 273.257812 203.714844 C 275.53125 203.71875 277.628906 202.941406 279.261719 201.570312 C 280.898438 200.199219 282.066406 198.253906 282.59375 195.976562 L 282.601562 195.945312 C 282.777344 195.105469 282.871094 194.265625 282.871094 193.449219 C 282.875 191.222656 282.191406 189.128906 280.875 187.457031 C 279.558594 185.789062 277.625 184.585938 275.28125 184.039062 C 274.464844 183.847656 273.652344 183.753906 272.855469 183.753906 C 270.625 183.75 268.539062 184.507812 266.898438 185.871094 C 265.257812 187.230469 264.074219 189.1875 263.53125 191.503906 Z M 270.253906 179.945312 L 271.742188 180.234375 L 272.199219 177.871094 L 272.207031 177.832031 C 272.574219 175.699219 273.351562 173.660156 274.644531 171.667969 C 275.941406 169.679688 277.761719 167.742188 280.242188 165.867188 L 280.238281 165.871094 C 282.085938 164.488281 283.808594 163.1875 285.222656 161.765625 C 286.632812 160.347656 287.765625 158.765625 288.222656 156.839844 C 288.359375 156.246094 288.429688 155.65625 288.429688 155.066406 C 288.441406 153.46875 287.84375 151.902344 286.679688 150.707031 C 285.523438 149.503906 283.898438 148.652344 281.839844 148.078125 L 281.78125 148.0625 C 280.519531 147.765625 279.15625 147.625 277.777344 147.625 C 275.535156 147.628906 273.261719 147.992188 271.335938 148.746094 L 271.894531 150.15625 L 273.40625 150.050781 L 272.640625 139.492188 L 271.132812 139.601562 L 271.578125 141.054688 C 273.488281 140.460938 276.121094 140.027344 279.140625 140.03125 C 281.464844 140.03125 284.019531 140.28125 286.683594 140.90625 C 291.5 142.039062 294.796875 144.003906 296.882812 146.324219 C 298.96875 148.644531 299.902344 151.332031 299.910156 154.164062 C 299.910156 155.167969 299.785156 156.191406 299.550781 157.21875 C 298.816406 160.335938 297.277344 162.660156 295.359375 164.636719 C 293.441406 166.605469 291.136719 168.179688 288.96875 169.679688 C 286.757812 171.21875 285.027344 172.871094 283.730469 174.71875 C 282.433594 176.570312 281.589844 178.605469 281.128906 180.816406 L 282.609375 181.128906 L 281.136719 180.78125 L 281.097656 180.929688 L 270.597656 178.464844 L 270.253906 179.945312 L 271.742188 180.234375 L 270.253906 179.945312 L 269.910156 181.421875 L 281.882812 184.234375 C 282.695312 184.421875 283.507812 183.917969 283.703125 183.101562 L 284.085938 181.476562 L 284.09375 181.441406 C 284.484375 179.578125 285.15625 177.96875 286.207031 176.464844 C 287.257812 174.964844 288.710938 173.558594 290.695312 172.171875 C 292.839844 170.6875 295.328125 169.011719 297.523438 166.757812 C 299.722656 164.511719 301.628906 161.648438 302.5 157.90625 C 302.78125 156.671875 302.9375 155.417969 302.9375 154.164062 C 302.941406 150.648438 301.722656 147.152344 299.132812 144.285156 C 296.546875 141.414062 292.640625 139.1875 287.375 137.949219 C 284.472656 137.269531 281.6875 136.992188 279.140625 136.992188 C 275.832031 136.992188 272.933594 137.460938 270.683594 138.152344 C 270.011719 138.363281 269.570312 139.007812 269.621094 139.714844 L 270.386719 150.265625 C 270.421875 150.75 270.679688 151.1875 271.089844 151.445312 C 271.496094 151.699219 272.007812 151.746094 272.453125 151.566406 C 273.898438 150.992188 275.871094 150.660156 277.777344 150.664062 C 278.949219 150.664062 280.101562 150.785156 281.089844 151.019531 L 281.4375 149.539062 L 281.03125 151.003906 C 282.738281 151.472656 283.851562 152.132812 284.496094 152.808594 C 285.136719 153.496094 285.390625 154.167969 285.402344 155.066406 C 285.402344 155.402344 285.363281 155.761719 285.269531 156.148438 C 285.007812 157.296875 284.277344 158.417969 283.078125 159.625 C 281.886719 160.824219 280.261719 162.070312 278.425781 163.441406 L 278.421875 163.445312 C 275.714844 165.492188 273.628906 167.683594 272.109375 170.007812 C 270.59375 172.332031 269.65625 174.789062 269.222656 177.320312 L 270.714844 177.578125 L 269.226562 177.289062 L 268.769531 179.65625 C 268.609375 180.453125 269.117188 181.238281 269.910156 181.421875 L 270.253906 179.945312 "/>
</g>
<path style=" stroke:none;fill-rule:nonzero;fill:rgb(75.289917%,8.628845%,10.978699%);fill-opacity:1;" d="M 186.117188 245.238281 L 193.488281 192.0625 L 203.539062 192.0625 L 210.914062 245.238281 L 198.511719 260.773438 L 186.117188 245.238281 "/>
<path style=" stroke:none;fill-rule:nonzero;fill:rgb(13.729858%,12.159729%,12.548828%);fill-opacity:1;" d="M 186.117188 245.238281 L 187.613281 245.445312 L 194.804688 193.582031 L 202.21875 193.582031 L 209.324219 244.796875 L 198.511719 258.34375 L 187.296875 244.289062 L 186.117188 245.238281 L 187.613281 245.445312 L 186.117188 245.238281 L 184.933594 246.183594 L 197.328125 261.722656 C 197.617188 262.082031 198.050781 262.292969 198.511719 262.292969 C 198.972656 262.292969 199.40625 262.082031 199.695312 261.722656 L 212.097656 246.183594 C 212.359375 245.859375 212.472656 245.441406 212.417969 245.027344 L 205.039062 191.855469 C 204.9375 191.101562 204.292969 190.546875 203.539062 190.546875 L 193.488281 190.546875 C 192.734375 190.546875 192.09375 191.101562 191.992188 191.855469 L 184.617188 245.027344 C 184.558594 245.441406 184.671875 245.855469 184.933594 246.183594 L 186.117188 245.238281 "/>
<path style=" stroke:none;fill-rule:nonzero;fill:rgb(82.749939%,82.348633%,82.348633%);fill-opacity:1;" d="M 198.675781 192.0625 L 187.519531 202.71875 L 182.78125 192.0625 Z M 198.675781 192.0625 "/>
<path style=" stroke:none;fill-rule:nonzero;fill:rgb(13.729858%,12.159729%,12.548828%);fill-opacity:1;" d="M 198.675781 192.0625 L 197.628906 190.964844 L 188.027344 200.140625 L 185.109375 193.582031 L 198.675781 193.582031 L 198.675781 192.0625 L 197.628906 190.964844 L 198.675781 192.0625 L 198.675781 190.546875 L 182.78125 190.546875 C 182.265625 190.546875 181.785156 190.808594 181.511719 191.238281 C 181.230469 191.664062 181.1875 192.214844 181.394531 192.679688 L 186.136719 203.339844 C 186.335938 203.789062 186.742188 204.117188 187.222656 204.210938 C 187.703125 204.304688 188.207031 204.160156 188.5625 203.820312 L 199.71875 193.164062 C 200.164062 192.734375 200.3125 192.070312 200.082031 191.5 C 199.855469 190.925781 199.292969 190.546875 198.675781 190.546875 L 198.675781 192.0625 "/>
<path style=" stroke:none;fill-rule:nonzero;fill:rgb(82.749939%,82.348633%,82.348633%);fill-opacity:1;" d="M 198.730469 192.0625 L 209.890625 202.71875 L 214.632812 192.0625 Z M 198.730469 192.0625 "/>
<path style=" stroke:none;fill-rule:nonzero;fill:rgb(13.729858%,12.159729%,12.548828%);fill-opacity:1;" d="M 198.730469 192.0625 L 197.683594 193.164062 L 208.84375 203.820312 C 209.199219 204.160156 209.699219 204.304688 210.183594 204.210938 C 210.664062 204.117188 211.070312 203.789062 211.273438 203.339844 L 216.011719 192.679688 C 216.222656 192.214844 216.179688 191.664062 215.902344 191.238281 C 215.621094 190.808594 215.140625 190.546875 214.632812 190.546875 L 198.730469 190.546875 C 198.113281 190.546875 197.554688 190.925781 197.324219 191.5 C 197.097656 192.070312 197.238281 192.734375 197.683594 193.164062 L 198.730469 192.0625 L 198.730469 193.582031 L 212.296875 193.582031 L 209.378906 200.140625 L 199.773438 190.964844 L 198.730469 192.0625 L 198.730469 193.582031 L 198.730469 192.0625 "/>
</g>
</svg>
